<svg width="300" height="300" viewBox="0 0 300 300" fill="none" xmlns="http://www.w3.org/2000/svg">
<g clip-path="url(#clip0_5_22)">
<path fill-rule="evenodd" clip-rule="evenodd" d="M153.86 56.49L190.29 18C253.8 34.02 300.97 91.7 300.97 159.97C300.97 228.24 254 285.68 190.69 301.84L153.86 262.93L117.27 301.58C54.47 285.07 8 228.03 8 159.97C8 91.91 54.67 34.62 117.66 18.25L153.86 56.49ZM108.979 142.681C113.174 148.902 119.684 153.893 128.508 157.654C118.237 160.692 110.425 165.611 105.072 172.41C99.8645 179.065 97.2605 186.587 97.2605 194.978C97.2605 207.275 101.962 216.967 111.365 224.056C120.769 231 133.427 234.472 149.34 234.472C164.965 234.472 177.912 230.494 188.184 222.537C198.6 214.436 203.807 203.875 203.807 190.855C203.807 172.482 193.536 159.535 172.993 152.012C181.673 149.119 187.967 144.562 191.872 138.341C195.923 131.976 197.949 125.321 197.949 118.377C197.949 107.816 193.609 99.3534 184.928 92.988C176.249 86.478 165.254 83.223 151.945 83.223C138.635 83.223 127.134 86.912 117.441 94.29C107.749 101.668 102.902 111.144 102.902 122.717C102.902 129.661 104.928 136.316 108.979 142.681ZM166.483 138.775C163.445 142.536 158.816 144.417 152.595 144.417C145.941 144.417 140.443 142.247 136.104 137.907C131.908 133.567 129.811 128.07 129.811 121.415C129.811 115.628 131.402 111.071 134.585 107.744C137.767 104.417 142.396 102.753 148.473 102.753C155.561 102.753 161.059 104.851 164.965 109.046C169.015 113.097 171.04 118.377 171.04 124.887C171.04 130.384 169.521 135.014 166.483 138.775ZM133.066 206.913C128.436 202.139 126.121 196.135 126.121 188.902C126.121 182.971 127.857 177.907 131.329 173.712C134.946 169.372 140.371 167.202 147.604 167.202C156.14 167.202 162.867 169.661 167.785 174.58C172.704 179.499 175.164 185.502 175.164 192.591C175.164 206.768 167.641 213.857 152.595 213.857C144.35 213.857 137.84 211.542 133.066 206.913Z" fill="black"/>
</g>
<defs>
<clipPath id="clip0_5_22">
<rect width="300" height="300" fill="white"/>
</clipPath>
</defs>
</svg>
