<svg width="300" height="300" viewBox="0 0 300 300" fill="none" xmlns="http://www.w3.org/2000/svg">
<g clip-path="url(#clip0_5_26)">
<path fill-rule="evenodd" clip-rule="evenodd" d="M153.86 56.49L190.29 18C253.8 34.02 300.97 91.7 300.97 159.97C300.97 228.24 254 285.68 190.69 301.84L153.86 262.93L117.27 301.58C54.47 285.07 8 228.03 8 159.97C8 91.91 54.67 34.62 117.66 18.25L153.86 56.49ZM146.519 205.828C135.814 214.942 121.637 222.682 103.987 229.047L147.387 232.953C163.879 224.418 177.189 211.687 187.315 194.761C197.442 177.69 202.505 159.535 202.505 140.294C202.505 122.211 197.876 108.178 188.617 98.196C179.359 88.214 166.556 83.223 150.208 83.223C134.729 83.223 122.071 88.2864 112.233 98.413C102.541 108.395 97.6943 121.27 97.6943 137.039C97.6943 150.782 101.745 162.139 109.846 171.108C118.092 179.933 128.653 184.345 141.528 184.345C153.68 184.345 163.735 179.426 171.691 169.589L172.993 170.457C166.049 184.924 157.225 196.714 146.519 205.828ZM167.351 155.701C163.156 160.909 157.731 163.513 151.076 163.513C143.264 163.513 136.827 160.403 131.763 154.182C126.845 147.961 124.385 140.149 124.385 130.746C124.385 122.789 126.483 116.352 130.678 111.433C135.018 106.37 140.154 103.838 146.085 103.838C154.187 103.838 160.769 107.021 165.832 113.386C171.04 119.751 173.644 127.491 173.644 136.605C173.644 144.128 171.547 150.493 167.351 155.701Z" fill="black"/>
</g>
<defs>
<clipPath id="clip0_5_26">
<rect width="300" height="300" fill="white"/>
</clipPath>
</defs>
</svg>
