<svg width="293" height="282" viewBox="0 0 293 282" fill="none" xmlns="http://www.w3.org/2000/svg">
<path fill-rule="evenodd" clip-rule="evenodd" d="M145.86 38.49L182.29 0C245.8 16.02 292.97 73.7 292.97 141.97C292.97 210.24 246 267.68 182.69 283.84L145.86 244.93L109.27 283.58C46.47 267.07 0 210.03 0 141.97C0 73.91 46.67 16.62 109.66 0.25L145.86 38.49ZM122.823 208.481C129.912 211.23 137.941 212.604 146.91 212.604C155.59 212.604 163.402 211.302 170.346 208.698C177.29 206.094 183.222 202.477 188.14 197.848C193.204 193.074 197.037 187.432 199.641 180.922C202.39 174.412 203.764 167.251 203.764 159.439C203.764 152.35 202.607 145.913 200.292 140.126C198.122 134.195 195.012 129.204 190.961 125.153C187.055 121.102 182.354 117.992 176.856 115.822C171.504 113.507 165.717 112.35 159.496 112.35C154.722 112.35 150.527 113.001 146.91 114.303C143.294 115.605 140.111 117.341 137.362 119.511C134.758 121.536 132.516 123.923 130.635 126.672C128.899 129.421 127.38 132.242 126.078 135.135L124.125 134.484C125.572 127.251 128.031 120.524 131.503 114.303C135.12 107.938 139.605 101.717 144.957 95.641C150.455 89.565 156.892 83.5613 164.27 77.63C171.648 71.554 179.967 65.1887 189.225 58.534H144.306C137.796 62.874 131.286 68.2267 124.776 74.592C118.411 80.9573 112.624 88.1907 107.416 96.292C102.353 104.249 98.1577 113.001 94.8304 122.549C91.6477 131.952 90.0564 141.934 90.0564 152.495C90.0564 161.609 91.2861 169.855 93.7454 177.233C96.3494 184.611 100.038 190.976 104.812 196.329C109.731 201.537 115.735 205.588 122.823 208.481ZM163.836 181.356C159.786 185.262 154.144 187.215 146.91 187.215C139.677 187.215 134.035 185.262 129.984 181.356C125.934 177.305 123.908 171.591 123.908 164.213V160.307C123.908 152.929 125.934 147.287 129.984 143.381C134.035 139.33 139.677 137.305 146.91 137.305C154.144 137.305 159.786 139.33 163.836 143.381C167.887 147.287 169.912 152.929 169.912 160.307V164.213C169.912 171.591 167.887 177.305 163.836 181.356Z" fill="black"/>
</svg>
