<svg complex="false" colored="false" class="relative flex-shrink size-5 inline-block align-middle" width="300" height="300" viewBox="0 0 300 300" fill="currentColor" xmlns="http://www.w3.org/2000/svg"><path d="M146.85 98.06c-12.74 0-18.77 11.12-18.77 43.09 0 44.95 9.04 61.63 23.63 61.63 12.05 0 19-7.88 19-43.09 0-44.72-9.27-61.63-23.86-61.63"></path><path d="m186.25 9.86-36.43 38.49-36.2-38.24C50.63 26.48 3.96 83.77 3.96 151.83s46.47 125.1 109.27 141.61l36.59-38.65 36.83 38.91c63.31-16.16 110.28-73.6 110.28-141.87S249.76 25.88 186.25 9.86m-37.08 221.19c-38.46 0-58.85-29.42-58.85-76.69s19.69-84.57 60.24-84.57 58.62 34.06 58.62 77.62c0 46.11-18.54 83.64-60.01 83.64"></path></svg>