<svg width="300" height="300" viewBox="0 0 300 300" fill="none" xmlns="http://www.w3.org/2000/svg">
<g clip-path="url(#clip0_3_38)">
<path fill-rule="evenodd" clip-rule="evenodd" d="M190.29 18L153.86 56.49L117.66 18.25C54.67 34.62 8 91.91 8 159.97C8 228.03 54.47 285.07 117.27 301.58L153.86 262.93L190.69 301.84C254 285.68 300.97 228.24 300.97 159.97C300.97 91.7 253.8 34.02 190.29 18ZM198.24 234.255C182.037 234.255 169.307 228.034 160.048 215.593C150.789 203.007 146.16 185.358 146.16 162.645C146.16 138.63 150.862 119.39 160.265 104.923C169.813 90.4563 182.833 83.223 199.325 83.223C215.238 83.223 227.897 89.733 237.3 102.753C246.703 115.773 251.405 133.422 251.405 155.701C251.405 179.282 246.703 198.305 237.3 212.772C228.041 227.094 215.021 234.255 198.24 234.255ZM200.41 212.989C214.732 212.989 221.893 197.654 221.893 166.985C221.893 146.732 219.651 131.325 215.166 120.764C210.681 110.059 204.388 104.706 196.287 104.706C182.11 104.706 175.021 120.041 175.021 150.71C175.021 170.529 177.191 185.864 181.531 196.714C185.871 207.564 192.164 212.989 200.41 212.989ZM75.2689 138.124L92.1949 119.679V201.705C92.1949 216.461 88.0719 226.226 79.8259 231H133.425C125.034 226.805 120.839 217.04 120.839 201.705V86.478H98.0539C88.7952 97.0387 76.5709 109.552 61.3809 124.019L75.2689 138.124Z" fill="black"/>
</g>
<defs>
<clipPath id="clip0_3_38">
<rect width="300" height="300" fill="white"/>
</clipPath>
</defs>
</svg>
