<?xml version="1.0" standalone="no"?>
<!DOCTYPE svg PUBLIC "-//W3C//DTD SVG 20010904//EN"
 "http://www.w3.org/TR/2001/REC-SVG-20010904/DTD/svg10.dtd">
<svg version="1.0" xmlns="http://www.w3.org/2000/svg"
 width="56.000000pt" height="56.000000pt" viewBox="0 0 56.000000 56.000000"
 preserveAspectRatio="xMidYMid meet">

<g transform="translate(0.000000,56.000000) scale(0.100000,-0.100000)"
fill="#000000" stroke="none">
<path d="M143 510 c-118 -68 -167 -222 -109 -345 25 -54 89 -119 140 -140 30
-13 32 -12 69 23 l37 36 38 -37 37 -36 41 18 c49 22 106 78 130 129 11 21 20
68 22 110 4 63 1 79 -22 127 -30 60 -68 96 -133 128 l-43 21 -36 -36 -37 -36
-29 34 c-17 19 -35 34 -42 34 -6 0 -34 -14 -63 -30z m217 -180 c0 -73 3 -90
15 -90 9 0 15 -9 15 -25 0 -16 -6 -25 -16 -25 -12 0 -15 -7 -12 -25 5 -23 3
-25 -37 -25 -40 0 -42 2 -37 25 4 25 3 25 -62 25 -37 0 -66 4 -66 10 0 5 24
57 52 115 l53 105 47 0 48 0 0 -90z"/>
<path d="M262 305 c-28 -58 -28 -65 3 -65 24 0 25 3 25 55 0 30 -1 55 -3 55
-2 0 -13 -20 -25 -45z"/>
</g>
</svg>
