<svg width="300" height="300" viewBox="0 0 300 300" fill="none" xmlns="http://www.w3.org/2000/svg">
<g clip-path="url(#clip0_3_48)">
<path fill-rule="evenodd" clip-rule="evenodd" d="M190.29 18L153.86 56.49L117.66 18.25C54.67 34.62 8 91.91 8 159.97C8 228.03 54.47 285.07 117.27 301.58L153.86 262.93L190.69 301.84C254 285.68 300.97 228.24 300.97 159.97C300.97 91.7 253.8 34.02 190.29 18ZM217.119 128.576C217.119 120.909 214.877 114.905 210.392 110.565C205.907 106.08 200.265 103.838 193.466 103.838C186.956 103.838 181.893 105.502 178.276 108.829C174.804 112.156 173.068 115.845 173.068 119.896C173.068 123.223 174.153 126.189 176.323 128.793C178.493 131.397 181.676 133.133 185.871 134.001L166.558 155.05C160.916 153.459 156.07 150.131 152.019 145.068C148.113 139.86 146.16 133.639 146.16 126.406C146.16 113.965 151.079 103.693 160.916 95.592C170.898 87.346 184.063 83.223 200.41 83.223C214.298 83.223 225.654 87.0567 234.479 94.724C243.304 102.247 247.716 112.373 247.716 125.104C247.716 131.325 246.052 137.907 242.725 144.851C239.542 151.65 234.696 159.318 228.186 167.853C221.676 176.388 209.958 189.915 193.032 208.432H228.837C241.278 208.432 249.741 204.743 254.226 197.365L249.235 231H142.905L178.71 191.506C194.768 173.712 205.184 160.62 209.958 152.229C214.732 143.838 217.119 135.954 217.119 128.576ZM75.2689 138.124L92.1949 119.679V201.705C92.1949 216.461 88.0719 226.226 79.8259 231H133.425C125.034 226.805 120.839 217.04 120.839 201.705V86.478H98.0539C88.7952 97.0387 76.5709 109.552 61.3809 124.019L75.2689 138.124Z" fill="black"/>
</g>
<defs>
<clipPath id="clip0_3_48">
<rect width="300" height="300" fill="white"/>
</clipPath>
</defs>
</svg>
