<svg width="300" height="300" viewBox="0 0 300 300" fill="none" xmlns="http://www.w3.org/2000/svg">
<g clip-path="url(#clip0_3_44)">
<path fill-rule="evenodd" clip-rule="evenodd" d="M190.29 18L153.86 56.49L117.66 18.25C54.67 34.62 8 91.91 8 159.97C8 228.03 54.47 285.07 117.27 301.58L153.86 262.93L190.69 301.84C254 285.68 300.97 228.24 300.97 159.97C300.97 91.7 253.8 34.02 190.29 18ZM192.72 119.14L175.56 137.84L161.48 123.54C176.88 108.873 189.273 96.1866 198.66 85.48H221.76V202.3C221.76 217.847 226.013 227.747 234.52 232H180.18C188.54 227.16 192.72 217.26 192.72 202.3V119.14ZM77.7288 137.84L94.8888 119.14V202.3C94.8888 217.26 90.7088 227.16 82.3488 232H136.689C128.182 227.747 123.929 217.847 123.929 202.3V85.48H100.829C91.4421 96.1866 79.0488 108.873 63.6488 123.54L77.7288 137.84Z" fill="black"/>
</g>
<defs>
<clipPath id="clip0_3_44">
<rect width="300" height="300" fill="white"/>
</clipPath>
</defs>
</svg>
