<?xml version="1.0" standalone="no"?>
<!DOCTYPE svg PUBLIC "-//W3C//DTD SVG 20010904//EN"
 "http://www.w3.org/TR/2001/REC-SVG-20010904/DTD/svg10.dtd">
<svg version="1.0" xmlns="http://www.w3.org/2000/svg"
 width="56.000000pt" height="56.000000pt" viewBox="0 0 56.000000 56.000000"
 preserveAspectRatio="xMidYMid meet">

<g transform="translate(0.000000,56.000000) scale(0.100000,-0.100000)"
fill="#000000" stroke="none">
<path d="M143 510 c-118 -68 -167 -222 -109 -345 25 -54 89 -119 140 -140 30
-13 32 -12 69 23 l37 36 38 -37 37 -36 41 18 c49 22 106 78 130 129 11 21 20
68 22 110 4 63 1 79 -22 127 -30 60 -68 96 -133 128 l-43 21 -36 -36 -37 -36
-29 34 c-17 19 -35 34 -42 34 -6 0 -34 -14 -63 -30z m197 -93 c14 -7 31 -25
38 -40 11 -22 10 -31 -2 -56 -9 -16 -21 -31 -28 -34 -9 -3 -3 -12 15 -26 35
-29 36 -69 1 -102 -22 -20 -36 -24 -90 -24 -53 0 -67 4 -86 23 l-23 23 29 24
29 23 19 -24 c22 -27 50 -31 68 -9 18 21 -10 51 -55 59 -27 5 -32 10 -28 26 4
14 14 20 33 20 27 0 60 22 60 40 0 16 -31 40 -51 40 -11 0 -23 -10 -28 -24 -8
-20 -35 -35 -64 -36 -5 0 -7 14 -5 32 6 61 102 98 168 65z"/>
</g>
</svg>
