<svg width="300" height="300" viewBox="0 0 300 300" fill="none" xmlns="http://www.w3.org/2000/svg">
<g clip-path="url(#clip0_5_18)">
<path fill-rule="evenodd" clip-rule="evenodd" d="M153.86 56.49L190.29 18C253.8 34.02 300.97 91.7 300.97 159.97C300.97 228.24 254 285.68 190.69 301.84L153.86 262.93L117.27 301.58C54.47 285.07 8 228.03 8 159.97C8 91.91 54.67 34.62 117.66 18.25L153.86 56.49ZM141.094 175.231C130.244 200.114 122.649 218.703 118.309 231H157.803L157.586 227.528C157.586 218.125 159.033 207.926 161.926 196.931C164.82 185.936 171.33 169.01 181.456 146.153L209.015 86.478H101.817L97.0435 122.934C102.396 113.097 111.51 108.178 124.385 108.178H171.908C162.36 127.997 152.089 150.348 141.094 175.231Z" fill="black"/>
</g>
<defs>
<clipPath id="clip0_5_18">
<rect width="300" height="300" fill="white"/>
</clipPath>
</defs>
</svg>
