<?xml version="1.0" standalone="no"?>
<!DOCTYPE svg PUBLIC "-//W3C//DTD SVG 20010904//EN"
 "http://www.w3.org/TR/2001/REC-SVG-20010904/DTD/svg10.dtd">
<svg version="1.0" xmlns="http://www.w3.org/2000/svg"
 width="56.000000pt" height="56.000000pt" viewBox="0 0 56.000000 56.000000"
 preserveAspectRatio="xMidYMid meet">

<g transform="translate(0.000000,56.000000) scale(0.100000,-0.100000)"
fill="#000000" stroke="none">
<path d="M143 510 c-118 -68 -167 -222 -109 -345 25 -54 89 -119 140 -140 30
-13 32 -12 69 23 l37 36 38 -37 37 -36 41 18 c49 22 106 78 130 129 11 21 20
68 22 110 4 63 1 79 -22 127 -30 60 -68 96 -133 128 l-43 21 -36 -36 -37 -36
-29 34 c-17 19 -35 34 -42 34 -6 0 -34 -14 -63 -30z m227 -110 c0 -30 -1 -30
-54 -30 -49 0 -54 -2 -58 -25 -5 -22 -1 -25 40 -31 77 -11 114 -74 82 -135
-27 -49 -136 -66 -184 -28 -33 26 -33 41 2 61 26 15 28 15 45 -8 33 -44 91
-19 69 30 -10 23 -46 36 -100 36 -24 0 -25 1 -18 53 3 28 6 62 6 74 0 21 5 22
78 26 42 1 80 4 85 5 4 1 7 -11 7 -28z"/>
</g>
</svg>
